# xmcd CD database file
#
# Track frame offsets:
#	150
#	86400
#	127350
#	189525
#	234160
#	284410
#
# Disc length: 4235 seconds
#
# Revision: 0
# Processed by: cddbd v1.5.1PL2 Copyright (c) Steve Scherf et al.
# Submitted via: CDex 1.51
#
DISCID=50108906
DTITLE=Grant Clarkson - Exhibitionist
DYEAR=1997
DGENRE=Jazz
TTITLE0=Of Blur
TTITLE1=Urban Contemporary part 3
TTITLE2=Electronique part 2
TTITLE3=Watermelon Man
TTITLE4=Grant Robbie Tony
TTITLE5=So What
EXTD=YEAR: 1997
EXTT0=
EXTT1=
EXTT2=
EXTT3=
EXTT4=
EXTT5=
PLAYORDER=
